<?xml version="1.0" encoding="utf-8"?>
<svg viewBox="287.88 362.024 101.809 92.047" width="101.809" height="92.047" xmlns="http://www.w3.org/2000/svg">
  <path style="fill: rgb(216, 216, 216); stroke: rgb(0, 0, 0);" d="M 389.689 429.324 C 389.689 419.249 388.536 409.001 384.977 401.885 C 382.999 397.927 383.377 393.356 380.543 390.521 C 379.807 389.786 380.006 388.044 379.434 387.473 C 376.977 385.015 373.4 381.224 371.674 377.772 C 369.549 373.522 365.805 372.18 362.804 369.18 C 361.493 367.869 358.413 368.392 357.261 367.24 C 356.822 366.801 353.731 366.685 353.104 366.685 C 353.024 366.685 350.609 366.171 350.609 366.408 C 350.609 369.192 350.332 372.941 350.332 374.723 C 350.332 375.259 350.332 378.326 350.332 378.326 C 350.332 378.326 348.734 375.897 348.392 375.555 C 346.998 374.161 345.495 371.75 343.126 370.566 C 342.114 370.06 340.779 368.496 339.8 367.517 C 339.4 367.117 337.331 367.013 337.028 366.408 C 336.316 364.983 332.886 365.329 332.317 364.191 C 330.646 360.85 323.322 362.036 320.676 363.359 C 318.965 364.215 316.702 364.007 315.41 365.3 C 314.319 366.39 311.978 372.4 314.024 374.446 C 315.467 375.889 318.087 377.123 319.567 378.603 C 320.145 379.181 323.157 379.712 324.279 379.712 C 324.477 379.712 327.402 380.063 327.051 379.712 C 325.588 378.249 321.59 378.603 318.736 378.603 C 313.309 378.603 306.165 379.158 299.889 379.158 C 298.17 379.158 292.129 378.602 291.574 379.712 C 290.588 381.684 289.897 387.209 288.248 388.858 C 288.121 388.985 287.696 391.355 287.971 391.63 C 289.888 393.547 293.045 393.933 294.9 395.787 C 295.847 396.735 298.358 395.775 299.057 397.173 C 299.334 397.726 302.611 397.678 303.215 398.282 C 303.838 398.905 307.027 398.109 307.926 398.559 C 309.037 399.114 312.348 397.715 313.192 398.559 C 313.754 399.121 315.503 399.714 316.518 400.222 C 317.501 400.713 318.661 400.425 319.29 401.053 C 319.497 401.26 320.414 401.331 320.122 401.331 C 318.596 401.331 313.67 401.962 312.638 402.994 C 311.739 403.893 310.517 402.248 309.867 403.548 C 309.604 404.073 306.72 403.368 306.263 403.825 C 304.597 405.491 300.78 404.874 299.057 406.597 C 298.478 407.176 299.108 408.157 298.78 408.814 C 296.614 413.147 300.967 417.375 302.66 419.069 C 303.358 419.766 305.852 420.178 307.095 420.178 C 307.581 420.178 309.835 419.869 310.144 420.178 C 311.391 421.425 315.825 419.485 317.073 420.732 C 318.467 422.126 321.084 420.819 322.616 421.841 C 323.232 422.251 325.785 421.96 326.219 422.395 C 327.693 423.869 331.036 423.556 333.148 424.612 C 335.23 425.653 338.295 424.493 339.8 425.998 C 340.024 426.222 342.572 426.324 342.572 426.552 C 342.572 428.132 339.038 429.532 337.86 430.71 C 334.193 434.376 328.507 435.628 325.11 439.025 C 324.482 439.653 320.399 440.547 320.399 441.796 C 320.399 444.259 320.092 445.37 321.785 447.062 C 324.195 449.473 328.045 449.443 330.099 451.497 C 331.433 452.83 334.434 451.952 335.643 453.16 C 336.576 454.093 340.235 452.546 341.463 453.16 C 342.145 453.501 347.739 454.644 348.669 453.714 C 349.296 453.087 351.959 452.956 352.272 452.328 C 353.044 450.785 355.119 451.144 356.153 450.111 C 358.15 448.114 361.863 447.449 363.913 445.399 C 364.224 445.089 365.444 445.604 365.853 445.399 C 367.806 444.423 370.035 444.833 372.228 443.736 C 375.792 441.954 380.872 440.912 383.592 438.193 C 384.802 436.983 384.876 434.138 386.086 432.927 C 386.992 432.021 389.135 429.77 389.135 427.938"/>
  <path style="fill: rgb(216, 216, 216); stroke: rgb(0, 0, 0);" d="M 319.845 378.049 C 322.412 378.049 327.195 380.687 328.714 382.206 C 330.122 383.614 332.754 383.752 333.98 384.978 C 336.059 387.057 339.385 387.888 341.463 389.967 C 342.006 390.51 344.176 390.403 344.512 391.075 C 345.075 392.201 349.055 393.57 350.61 393.57"/>
  <path style="fill: rgb(216, 216, 216); stroke: rgb(0, 0, 0);" d="M 316.796 401.885 C 320.622 401.885 325.243 402.993 330.1 402.993 C 331.279 402.993 334.158 402.617 334.812 403.271 C 335.683 404.142 338.5 403.356 339.246 404.102 C 339.627 404.483 343.958 408.537 343.958 408.537"/>
</svg>