<?xml version="1.0" encoding="utf-8"?>
<svg viewBox="158.294 108.093 32.636 33.259" width="32.636" height="33.259" xmlns="http://www.w3.org/2000/svg" xmlns:bx="https://boxy-svg.com">
  <path style="fill: rgb(216, 216, 216); stroke: rgb(0, 0, 0);" transform="matrix(0.277162, 0, 0, 0.277162, -16.075388, -15.798226)" d="M 682.138 447 L 693.862 447 L 696.388 468.913 A 39 39 0 0 1 703.601 471.256 L 718.525 455.013 L 728.009 461.905 L 717.173 481.117 A 39 39 0 0 1 721.631 487.253 L 743.252 482.884 L 746.875 494.034 L 726.815 503.208 A 39 39 0 0 1 726.815 510.792 L 746.875 519.966 L 743.252 531.116 L 721.631 526.747 A 39 39 0 0 1 717.173 532.883 L 728.009 552.095 L 718.525 558.987 L 703.601 542.744 A 39 39 0 0 1 696.388 545.087 L 693.862 567 L 682.138 567 L 679.612 545.087 A 39 39 0 0 1 672.399 542.744 L 657.475 558.987 L 647.991 552.095 L 658.827 532.883 A 39 39 0 0 1 654.369 526.747 L 632.748 531.116 L 629.125 519.966 L 649.185 510.792 A 39 39 0 0 1 649.185 503.208 L 629.125 494.034 L 632.748 482.884 L 654.369 487.253 A 39 39 0 0 1 658.827 481.117 L 647.991 461.905 L 657.475 455.013 L 672.399 471.256 A 39 39 0 0 1 679.612 468.913 Z M 688 489 A 18 18 0 0 0 688 525 A 18 18 0 0 0 688 489" bx:shape="cog 688 507 18 39 60 0.38 10 1@2de423b7"/>
  <text style="white-space: pre; fill: rgb(51, 51, 51); font-family: Arial, sans-serif; font-size: 7.8px;" x="161.308" y="126.385">Interact</text>
</svg>